<?xml version="1.0" encoding="iso-8859-1"?>
<!-- Generator: Adobe Illustrator 19.0.0, SVG Export Plug-In . SVG Version: 6.00 Build 0)  -->
<svg version="1.1" id="Capa_1" xmlns="http://www.w3.org/2000/svg" xmlns:xlink="http://www.w3.org/1999/xlink" x="0px" y="0px"
	 viewBox="0 0 512.002 512.002" style="enable-background:new 0 0 512.002 512.002;" xml:space="preserve">
<path style="fill:#E22342;" d="M432.077,368.951c-43.179,43.189-96.67,68.43-149.549,74.925c-26.912,3.32-53.678,1.774-78.836-4.731
	c-35.336-9.14-72.86,1.39-98.662,27.202h-0.01l-59.353-59.363c25.801-25.801,36.342-63.337,27.202-98.672
	c-6.515-25.158-8.051-51.914-4.741-78.826v-0.01c6.494-52.889,31.736-106.37,74.925-149.559
	c92.437-92.437,237.722-108.31,317.544-28.499C540.408,131.228,524.524,276.513,432.077,368.951z"/>
<path style="fill:#F2AD49;" d="M282.528,443.875c-26.912,3.32-53.678,1.774-78.836-4.731c-35.336-9.14-72.86,1.39-98.662,27.202
	h-0.01l-59.353-59.363c25.801-25.801,36.342-63.337,27.202-98.672c-6.515-25.158-8.051-51.914-4.741-78.826L282.528,443.875z"/>
<rect x="60.526" y="306.515" transform="matrix(-0.7071 -0.7071 0.7071 -0.7071 -114.5843 771.5323)" style="fill:#EFBC4B;" width="83.943" height="205.964"/>
<rect x="67.787" y="288.997" transform="matrix(-0.7071 -0.7071 0.7071 -0.7071 -132.1052 729.2372)" style="fill:#D3A13D;" width="34.381" height="205.964"/>
<circle style="fill:#C9183A;" cx="342.61" cy="161.07" r="57.579"/>
<circle style="fill:#EAEAE4;" cx="379.097" cy="161.07" r="57.579"/>
<path style="fill:#D6D6D2;" d="M354.488,161.067c0-26.069,17.331-48.08,41.096-55.169c-5.223-1.558-10.752-2.407-16.481-2.407
	c-31.798,0-57.576,25.778-57.576,57.576s25.778,57.576,57.576,57.576c5.729,0,11.258-0.849,16.481-2.407
	C371.818,209.146,354.488,187.136,354.488,161.067z"/>
<g>
	<path style="fill:#C9183A;" d="M128.563,220.201c-3.248,0-6.225-2.111-7.317-5.163c-1.188-3.317,0.067-7.135,3.001-9.091
		c5.71-3.807,13.414,1.45,11.908,8.174C135.37,217.633,132.159,220.201,128.563,220.201z"/>
	<path style="fill:#C9183A;" d="M290.51,405.397c-7.062,0-10.434-9.111-5.052-13.695c5.441-4.635,13.917,0.232,12.719,7.249
		C297.548,402.633,294.243,405.397,290.51,405.397z"/>
	<path style="fill:#C9183A;" d="M286.36,78.257c-3.402,0-6.481-2.312-7.453-5.562c-0.908-3.03,0.17-6.368,2.641-8.329
		c5.579-4.427,13.893,0.773,12.424,7.706C293.22,75.631,290.004,78.257,286.36,78.257z"/>
	<path style="fill:#C9183A;" d="M305.449,280.893c-3.465,0-6.568-2.389-7.5-5.711c-0.929-3.314,0.53-6.993,3.497-8.746
		c5.964-3.521,13.496,2.216,11.439,8.928C311.896,278.595,308.842,280.893,305.449,280.893z"/>
	<path style="fill:#C9183A;" d="M282.625,274.657c-7.137,0-10.473-9.269-4.941-13.789c2.629-2.149,6.429-2.327,9.256-0.455
		c2.648,1.754,3.97,5.078,3.269,8.174C289.417,272.091,286.227,274.657,282.625,274.657z"/>
	<path style="fill:#C9183A;" d="M148.161,198.415c-3.181,0-6.1-2.02-7.249-4.981c-1.201-3.101-0.244-6.7,2.319-8.812
		c5.5-4.534,13.997,0.514,12.566,7.527C155.063,195.745,151.838,198.415,148.161,198.415z"/>
	<path style="fill:#C9183A;" d="M320.492,396.517c-6.864,0-10.343-8.665-5.363-13.409c2.649-2.523,6.805-2.824,9.806-0.748
		c2.687,1.859,3.915,5.309,3.049,8.456C327.07,394.144,323.947,396.517,320.492,396.517z"/>
	<path style="fill:#C9183A;" d="M310.637,420.938c-3.392,0-6.462-2.288-7.448-5.528c-0.951-3.129,0.226-6.629,2.871-8.55
		c5.831-4.232,14.004,1.418,12.066,8.366C317.197,418.554,314.102,420.938,310.637,420.938z"/>
	<path style="fill:#C9183A;" d="M124.517,187.532c-3.522,0-6.689-2.466-7.543-5.884c-0.746-2.986,0.38-6.248,2.852-8.095
		c5.537-4.138,13.524,0.71,12.358,7.533C131.554,184.773,128.247,187.532,124.517,187.532z"/>
</g>
<g>
</g>
<g>
</g>
<g>
</g>
<g>
</g>
<g>
</g>
<g>
</g>
<g>
</g>
<g>
</g>
<g>
</g>
<g>
</g>
<g>
</g>
<g>
</g>
<g>
</g>
<g>
</g>
<g>
</g>
</svg>
